<svg width="59" height="60" viewBox="0 0 59 60" fill="none" xmlns="http://www.w3.org/2000/svg">
<rect x="2.5" y="2.5" width="54" height="55" rx="7.5" stroke="#D9D9D9" stroke-width="5"/>
<rect x="18" y="3" width="5" height="52" fill="#D9D9D9"/>
<rect x="36" y="3" width="5" height="52" fill="#D9D9D9"/>
<rect x="7" y="44" width="9" height="9" rx="4.5" fill="#D9D9D9"/>
<rect x="43" y="44" width="9" height="9" rx="4.5" fill="#D9D9D9"/>
<rect x="25" y="44" width="9" height="9" rx="4.5" fill="#D9D9D9"/>
<rect x="7" y="18" width="9" height="2" fill="#D9D9D9"/>
<rect x="43" y="18" width="9" height="2" fill="#D9D9D9"/>
<rect x="25" y="18" width="9" height="2" fill="#D9D9D9"/>
<rect x="7" y="22" width="9" height="2" fill="#D9D9D9"/>
<rect x="43" y="22" width="9" height="2" fill="#D9D9D9"/>
<rect x="25" y="22" width="9" height="2" fill="#D9D9D9"/>
<rect x="7" y="26" width="9" height="2" fill="#D9D9D9"/>
<rect x="43" y="26" width="9" height="2" fill="#D9D9D9"/>
<rect x="25" y="26" width="9" height="2" fill="#D9D9D9"/>
</svg>
